<svg xmlns="http://www.w3.org/2000/svg" viewBox="0 0 34 34">
  <defs>
    <style>
      .cls-1 {
        fill: #ebebeb;
        opacity: 0;
      }

      .cls-2 {
        fill: #1890ff;
      }
    </style>
  </defs>
  <g id="基本信息" transform="translate(-247 -1518)">
    <rect id="矩形_46" data-name="矩形 46" class="cls-1" width="34" height="34" transform="translate(247 1518)"/>
    <g id="关系人信息-02" transform="translate(247 1523)">
      <path id="路径_112" data-name="路径 112" class="cls-2" d="M73.947,111.068h0a1,1,0,0,1-.99-1.137,7.99,7.99,0,0,1,4.582-6.136,5,5,0,1,1,7.059-.4,4.293,4.293,0,0,1-.392.392,8.011,8.011,0,0,1,4.586,6.136,1,1,0,0,1-.99,1.137h0a1,1,0,0,1-.99-.855,6,6,0,0,0-11.877,0A1,1,0,0,1,73.947,111.068Zm6.924-8a3,3,0,1,0-3-3A3,3,0,0,0,80.87,103.066Z" transform="translate(-69.874 -91.072)"/>
      <path id="路径_113" data-name="路径 113" class="cls-2" d="M462,214.6a.993.993,0,0,1,1-1h9.535a1,1,0,0,1,1,.994v0a.993.993,0,0,1-1,1H463a1,1,0,0,1-1-.994Z" transform="translate(-442.543 -204.603)"/>
      <path id="路径_114" data-name="路径 114" class="cls-2" d="M32.008,0H1.988A2,2,0,0,0,0,2V21.993a2,2,0,0,0,1.992,2H32.008a2,2,0,0,0,1.992-2V2A2,2,0,0,0,32.008,0ZM32,21.007A1,1,0,0,1,31,22H2.577A.575.575,0,0,1,2,21.424V2.99A.993.993,0,0,1,3,2H31a1,1,0,0,1,1,.994V21.007Z"/>
      <path id="路径_115" data-name="路径 115" class="cls-2" d="M462,309.6a1,1,0,0,1,1-1h7.539a1,1,0,1,1,0,2H463A1,1,0,0,1,462,309.6Z" transform="translate(-442.543 -295.603)"/>
    </g>
  </g>
</svg>
