<?xml version="1.0" encoding="utf-8"?>
<!-- Generator: Adobe Illustrator 23.0.0, SVG Export Plug-In . SVG Version: 6.00 Build 0)  -->
<svg version="1.0" id="图层_1" xmlns="http://www.w3.org/2000/svg" xmlns:xlink="http://www.w3.org/1999/xlink" x="0px" y="0px"
	 viewBox="0 0 13 13" style="enable-background:new 0 0 13 13;" xml:space="preserve">
<style type="text/css">
	.st0{fill:#FFFFFF;}
</style>
<path id="路径_144" class="st0" d="M3.13,11.2c0.02,0.3,0.26,0.53,0.55,0.55h8.76c0.3-0.02,0.53-0.26,0.55-0.55v-0.37
	c-0.02-0.3-0.26-0.53-0.55-0.55H3.69c-0.3,0.02-0.53,0.26-0.55,0.55V11.2z M1.11,9.91C0.5,9.92,0.01,10.41,0,11.02
	c0.02,0.58,0.5,1.03,1.08,1.02c0.01,0,0.02,0,0.03,0c0.61-0.01,1.1-0.5,1.11-1.11C2.13,10.37,1.67,9.94,1.11,9.91z M3.13,6.68
	c0.02,0.3,0.26,0.53,0.55,0.55h8.76c0.3-0.02,0.53-0.26,0.55-0.55V6.32c-0.02-0.3-0.26-0.53-0.55-0.55H3.69
	c-0.3,0.02-0.53,0.26-0.55,0.55V6.68z M1.11,5.39C0.49,5.39,0,5.89,0,6.5c0,0.61,0.5,1.11,1.11,1.11c0.61,0,1.11-0.5,1.11-1.11
	C2.14,5.92,1.68,5.46,1.11,5.39L1.11,5.39z M3.69,1.34c-0.3,0.02-0.53,0.26-0.55,0.55v0.37c0.02,0.3,0.26,0.53,0.55,0.55h8.76
	c0.3-0.02,0.53-0.26,0.55-0.55V1.8c-0.02-0.3-0.26-0.53-0.55-0.55H3.69V1.34z M1.11,0.97C0.53,0.93,0.03,1.38,0,1.95
	c0,0.01,0,0.02,0,0.03c0,0.61,0.5,1.11,1.11,1.11s1.11-0.5,1.11-1.11C2.13,1.42,1.67,1,1.11,0.97z"/>
</svg>
