<svg xmlns="http://www.w3.org/2000/svg" viewBox="0 0 34.114 34">
  <defs>
    <style>
      .cls-1 {
        fill: #ebebeb;
        opacity: 0;
      }

      .cls-2 {
        fill: #1890ff;
        stroke: #1890ff;
        stroke-width: 0.1px;
      }
    </style>
  </defs>
  <g id="车辆信息" transform="translate(-246.943 -1582)">
    <rect id="矩形_47" data-name="矩形 47" class="cls-1" width="34" height="34" transform="translate(247 1582)"/>
    <g id="车辆信息-01" transform="translate(117.345 1368.6)">
      <path id="路径_98" data-name="路径 98" class="cls-2" d="M229.862,483.029a2.828,2.828,0,1,0,2.691,2.691A2.83,2.83,0,0,0,229.862,483.029Zm-.134,4.149a1.324,1.324,0,1,1,1.324-1.325A1.325,1.325,0,0,1,229.728,487.177Z" transform="translate(-93.182 -253.57)"/>
      <path id="路径_99" data-name="路径 99" class="cls-2" d="M420.9,512.9h-9.045a.754.754,0,0,0-.752.752h0a.754.754,0,0,0,.752.752h9.041a.754.754,0,0,0,.752-.752h0A.748.748,0,0,0,420.9,512.9Z" transform="translate(-269.686 -282.196)"/>
      <path id="路径_100" data-name="路径 100" class="cls-2" d="M420.9,578.6h-9.045a.754.754,0,0,0-.752.752h0a.754.754,0,0,0,.752.752h9.041a.754.754,0,0,0,.752-.752h0A.748.748,0,0,0,420.9,578.6Z" transform="translate(-269.686 -345.151)"/>
      <path id="路径_101" data-name="路径 101" class="cls-2" d="M710.362,483.029a2.828,2.828,0,1,0,2.69,2.691A2.83,2.83,0,0,0,710.362,483.029Zm-.23,4.145a1.324,1.324,0,1,1,1.42-1.32A1.331,1.331,0,0,1,710.132,487.173Z" transform="translate(-553.607 -253.57)"/>
      <path id="路径_102" data-name="路径 102" class="cls-2" d="M163.582,224.7c-.489-1.659-3.071-1.4-4.312-1.166-1.166-2.352-3.1-5.126-5.753-5.126H148.6c-2.691,0-5.845,0-8.661,0-2.979,0-4.892,2.544-6.033,4.917-1.283-.221-3.7-.414-4.174,1.191-.476,1.621,1.5,2.64,2.6,3.075-.614,1.166-2.106,4.195-2.106,6.146a7.632,7.632,0,0,0,1.011,3.852v3.067a1.621,1.621,0,0,0,.422,1.132,1.531,1.531,0,0,0,1.149.455H135.4a1.515,1.515,0,0,0,1.571-1.558v-1.771h19.574l0,1.746a1.614,1.614,0,0,0,.426,1.136,1.507,1.507,0,0,0,1.128.447h2.2a1.493,1.493,0,0,0,1.558-1.558v-2.862c.426-.5,1.036-1.642,1.036-4.115a14.074,14.074,0,0,0-1.767-6C162.27,227.236,164.037,226.238,163.582,224.7ZM139.935,219.9c2.816,0,5.966,0,8.661,0h4.922c2.594,0,4.713,4.633,5.465,6.848H134.211C134.8,224.725,136.555,219.9,139.935,219.9Zm-8.761,5.026c.071-.242,1.011-.33,2.122-.184-.2.522-.355,1.007-.476,1.408C131.876,225.766,131.09,225.206,131.174,224.93Zm29.534,11.932-.338.138v3.677a.143.143,0,0,1,0,.046.209.209,0,0,1-.05.008h-2.206a.145.145,0,0,1-.046,0,.211.211,0,0,1-.008-.054l-.008-3.275H135.473v3.313a.522.522,0,0,1-.067.017h-2.595a.258.258,0,0,1-.063,0,.206.206,0,0,1,0-.05v-3.564l-.142-.2a5.96,5.96,0,0,1-.869-3.192c0-1.492,1.249-4.157,1.943-5.473h26.058a12.888,12.888,0,0,1,1.675,5.448C161.405,236.014,160.825,236.741,160.708,236.862Zm-.267-10.5c-.109-.322-.284-.823-.526-1.416,1.157-.167,2.156-.079,2.227.171C162.224,225.4,161.405,225.975,160.44,226.363Z" transform="translate(0 0)"/>
    </g>
  </g>
</svg>
