<?xml version="1.0" standalone="no"?><!DOCTYPE svg PUBLIC "-//W3C//DTD SVG 1.1//EN" "http://www.w3.org/Graphics/SVG/1.1/DTD/svg11.dtd"><svg t="1538985126322" class="icon" style="" viewBox="0 0 1024 1024" version="1.1" xmlns="http://www.w3.org/2000/svg" p-id="852" xmlns:xlink="http://www.w3.org/1999/xlink" width="64" height="64"><defs><style type="text/css"></style></defs><path d="M832 1024H192a192 192 0 0 1-192-192V576a192 192 0 0 1 192-192V64a64 64 0 0 1 64-64h512a64 64 0 0 1 64 64v320a192 192 0 0 1 192 192v256a192 192 0 0 1-192 192z m-256-128h256a64 64 0 0 0 64-64V576a64 64 0 0 0-64-64v128a64 64 0 0 1-64 64H256a64 64 0 0 1-64-64V512a64 64 0 0 0-64 64v256a64 64 0 0 0 64 64h256v-64a64 64 0 0 1 128 0zM320 576h384V128H320z m256-64H448a64 64 0 0 1 0-128h128a64 64 0 0 1 0 128z m0-192H448a64 64 0 0 1 0-128h128a64 64 0 0 1 0 128z"  p-id="853"></path></svg>
