<svg xmlns="http://www.w3.org/2000/svg" viewBox="0 0 34 34">
  <defs>
    <style>
      .cls-1 {
        fill: #ebebeb;
        opacity: 0;
      }

      .cls-2, .cls-4 {
        fill: #1890ff;
      }

      .cls-3, .cls-4 {
        stroke: none;
      }
    </style>
  </defs>
  <g id="进店记录" transform="translate(-522 -1582)">
    <rect id="矩形_48" data-name="矩形 48" class="cls-1" width="34" height="34" transform="translate(522 1582)"/>
    <g id="联合_7" data-name="联合 7" class="cls-2" transform="translate(527 1587)">
      <path class="cls-3" d="M3,24a3,3,0,0,1-3-3V18a.857.857,0,0,1,1.715,0v3.286a1,1,0,0,0,1,1H20.429a1,1,0,0,0,1-1V2.714a1,1,0,0,0-1-1H2.714a1,1,0,0,0-1,1V6A.857.857,0,0,1,0,6V3A3,3,0,0,1,3,0H20.143a3,3,0,0,1,3,3V21a3,3,0,0,1-3,3Zm9.074-6.974a.856.856,0,0,1,0-1.211l2.957-2.957H.857a.857.857,0,0,1,0-1.714H15.032L12.074,8.186a.857.857,0,0,1,1.211-1.211l4.243,4.243.033.035a.858.858,0,0,1,0,1.5l-.033.035-4.243,4.243a.856.856,0,0,1-1.211,0Z"/>
      <path class="cls-4" d="M 20.14290046691895 24.00030136108398 L 2.999700546264648 24.00030136108398 C 1.345500588417053 24.00030136108398 6.408691319848003e-07 22.65480041503906 6.408691319848003e-07 21.00060081481934 L 6.408691319848003e-07 18 C 6.408691319848003e-07 17.5265998840332 0.3834006488323212 17.1431999206543 0.8568006157875061 17.1431999206543 C 1.330200672149658 17.1431999206543 1.714500665664673 17.5265998840332 1.714500665664673 18 L 1.714500665664673 21.2859001159668 C 1.714500665664673 21.83760070800781 2.16360068321228 22.28580093383789 2.71440052986145 22.28580093383789 L 20.42910003662109 22.28580093383789 C 20.98080062866211 22.28580093383789 21.42900085449219 21.83760070800781 21.42900085449219 21.2859001159668 L 21.42900085449219 2.714400768280029 C 21.42900085449219 2.162700653076172 20.98080062866211 1.714500665664673 20.42910003662109 1.714500665664673 L 2.71440052986145 1.714500665664673 C 2.16360068321228 1.714500665664673 1.714500665664673 2.162700653076172 1.714500665664673 2.714400768280029 L 1.714500665664673 6.000300884246826 C 1.714500665664673 6.473700523376465 1.330200672149658 6.857100486755371 0.8568006157875061 6.857100486755371 C 0.3834006488323212 6.857100486755371 6.408691319848003e-07 6.473700523376465 6.408691319848003e-07 6.000300884246826 L 6.408691319848003e-07 2.999700784683228 C 6.408691319848003e-07 1.345500707626343 1.345500588417053 6.805419729971618e-07 2.999700546264648 6.805419729971618e-07 L 20.14290046691895 6.805419729971618e-07 C 21.79800033569336 6.805419729971618e-07 23.14350128173828 1.345500707626343 23.14350128173828 2.999700784683228 L 23.14350128173828 21.00060081481934 C 23.14350128173828 22.65480041503906 21.79800033569336 24.00030136108398 20.14290046691895 24.00030136108398 Z M 12.67920017242432 17.27729988098145 C 12.46005058288574 17.27729988098145 12.24090099334717 17.19360160827637 12.07350063323975 17.02620124816895 C 11.73870086669922 16.6914005279541 11.73870086669922 16.14960098266602 12.07350063323975 15.81480026245117 L 15.0309009552002 12.85740089416504 L 0.8568006157875061 12.85740089416504 C 0.3834006488323212 12.85740089416504 6.408691319848003e-07 12.47310066223145 6.408691319848003e-07 11.99970054626465 C 6.408691319848003e-07 11.52630043029785 0.3834006488323212 11.14290046691895 0.8568006157875061 11.14290046691895 L 15.03160095214844 11.14290046691895 L 12.07350063323975 8.185501098632813 C 11.73870086669922 7.850700855255127 11.73870086669922 7.308900833129883 12.07350063323975 6.974100589752197 C 12.24090099334717 6.806700706481934 12.46005058288574 6.723000526428223 12.67920017242432 6.723000526428223 C 12.89835071563721 6.723000526428223 13.11750030517578 6.806700706481934 13.2849006652832 6.974100589752197 L 17.52840042114258 11.21670055389404 C 17.53981018066406 11.22811031341553 17.55074119567871 11.23979091644287 17.56136131286621 11.25167083740234 C 17.8231315612793 11.39825057983398 18 11.67820072174072 18 11.99970054626465 C 18 12.32103061676025 17.82331085205078 12.60125064849854 17.56178092956543 12.74816036224365 C 17.5510311126709 12.76020050048828 17.53995132446289 12.77205085754395 17.52840042114258 12.78360080718994 L 13.2849006652832 17.02620124816895 C 13.11750030517578 17.19360160827637 12.89835071563721 17.27729988098145 12.67920017242432 17.27729988098145 Z"/>
    </g>
  </g>
</svg>
