<?xml version="1.0" encoding="utf-8"?>
<!-- Generator: Adobe Illustrator 22.1.0, SVG Export Plug-In . SVG Version: 6.00 Build 0)  -->
<svg version="1.1" id="图层_1" xmlns="http://www.w3.org/2000/svg" xmlns:xlink="http://www.w3.org/1999/xlink" x="0px" y="0px"
	 viewBox="0 0 64 64" style="enable-background:new 0 0 64 64;" xml:space="preserve">
<g>
	<path d="M52.5,26.2l5-5.2c0.7-0.8,0.7-1.9-0.1-2.7C57,18,56.5,17.8,56,17.8s-1,0.2-1.4,0.6l-5.3,5.4c-2.5-1.8-5.5-3.4-8.9-4.6
		l2-6.8c0.3-1.1-0.3-2.1-1.4-2.4c-0.1-0.1-0.3-0.1-0.5-0.1c-0.8,0-1.7,0.6-1.8,1.5l-2,6.8c-1.6-0.3-3.2-0.5-4.9-0.5
		s-3.3,0.2-4.9,0.5l-2-6.9c-0.2-0.9-1-1.5-1.8-1.5h-0.6c-1.1,0.3-1.7,1.4-1.4,2.4l2,6.9C20,20.3,17,22,14.5,23.7l-5.3-5.5
		c-0.4-0.4-0.9-0.6-1.4-0.6c-0.5,0-1,0.2-1.2,0.6c-0.8,0.7-0.9,1.9-0.1,2.7l5,5.2c-3.7,2.9-6,5.5-6.2,5.8c-0.7,0.8-0.6,2,0.2,2.7
		c0.8,0.7,2,0.6,2.7-0.2C8.3,34.3,19.6,21.5,32,21.5c12.8,0,23.6,12.7,23.7,12.8c0.7,0.9,1.8,1.1,2.7,0.4c0.8-0.7,1-1.8,0.4-2.7
		C58.9,32,56.5,29.2,52.5,26.2z"/>
	<path d="M53.3,41.8c0,3.9-8.8,12.4-21.3,12.4c-12.2,0-21.3-8.3-21.3-12.4S19.9,29.5,32,29.5C44.6,29.5,53.3,37.7,53.3,41.8
		L53.3,41.8L53.3,41.8z M32,31.7c-5.7,0-10.3,4.5-10.3,10.1S26.4,51.9,32,51.9s10.2-4.5,10.2-10.1C42.3,36.3,37.7,31.7,32,31.7
		L32,31.7z M32,35.4c-3.6,0-6.5,2.9-6.5,6.4s2.9,6.4,6.5,6.4s6.5-2.9,6.5-6.4C38.5,38.3,35.6,35.4,32,35.4L32,35.4z"/>
</g>
</svg>
