<svg xmlns="http://www.w3.org/2000/svg" viewBox="0 0 34 34">
  <defs>
    <style>
      .cls-1 {
        fill: #ebebeb;
        opacity: 0;
      }

      .cls-2 {
        fill: #1890ff;
        stroke-width: 0.2px;
      }

      .cls-2, .cls-3, .cls-4 {
        stroke: #1890ff;
      }

      .cls-3, .cls-4, .cls-6 {
        fill: none;
      }

      .cls-3, .cls-4 {
        stroke-width: 1.7px;
      }

      .cls-4 {
        stroke-linecap: round;
        stroke-linejoin: round;
      }

      .cls-5 {
        stroke: none;
      }
    </style>
  </defs>
  <g id="续保跟进记录_" data-name="续保跟进记录：" transform="translate(-853 -1518)">
    <rect id="矩形_56" data-name="矩形 56" class="cls-1" width="34" height="34" transform="translate(853 1518)"/>
    <g id="组_48" data-name="组 48" transform="translate(0 266)">
      <g id="组_47" data-name="组 47" transform="translate(-268 397)">
        <path id="路径_91" data-name="路径 91" class="cls-2" d="M215.576,89.71v5.7a.912.912,0,0,1-.912.912h-5.955v14.843a1.787,1.787,0,0,0,.127.914.7.7,0,0,0,.3.3,1.787,1.787,0,0,0,.914.127l4,0a.855.855,0,1,1,0,1.71l-4,0a3.307,3.307,0,0,1-1.72-.329,2.408,2.408,0,0,1-1-1,3.307,3.307,0,0,1-.329-1.72V95.695a3.874,3.874,0,0,1,.081-.977,2.346,2.346,0,0,1,.316-.741,3.867,3.867,0,0,1,.649-.734l4.481-4.29a3.94,3.94,0,0,1,.724-.593,2.341,2.341,0,0,1,.714-.287A3.942,3.942,0,0,1,214.9,88l9.814.073a3.307,3.307,0,0,1,1.72.329,2.408,2.408,0,0,1,1,1,3.307,3.307,0,0,1,.329,1.72V95.18a.855.855,0,1,1-1.71,0V91.119a1.786,1.786,0,0,0-.127-.914.7.7,0,0,0-.3-.3,1.786,1.786,0,0,0-.914-.127Zm-1.709.331-.156.147-4.481,4.29-.137.133h4.774Z" transform="translate(917.828 770)"/>
        <g id="椭圆_8" data-name="椭圆 8" class="cls-3" transform="translate(1131.769 866.764)">
          <ellipse class="cls-5" cx="9.686" cy="9.698" rx="9.686" ry="9.698"/>
          <ellipse class="cls-6" cx="9.686" cy="9.698" rx="8.836" ry="8.848"/>
        </g>
        <path id="路径_116" data-name="路径 116" class="cls-4" d="M1141.455,869.779v6.9h5.244"/>
      </g>
    </g>
  </g>
</svg>
