<?xml version="1.0" standalone="no"?><!DOCTYPE svg PUBLIC "-//W3C//DTD SVG 1.1//EN" "http://www.w3.org/Graphics/SVG/1.1/DTD/svg11.dtd"><svg t="1543484635243" class="icon" style="" viewBox="0 0 1024 1024" version="1.1" xmlns="http://www.w3.org/2000/svg" p-id="1096" xmlns:xlink="http://www.w3.org/1999/xlink" width="16" height="16"><defs><style type="text/css"></style></defs><path d="M857.6 166.4C668.8-22.4 358.4-22.4 169.6 166.4s-188.8 499.2 0 688 499.2 188.8 688 0 188.8-496 0-688z m-51.2 640c-163.2 163.2-425.6 163.2-588.8 0-163.2-163.2-163.2-425.6 0-588.8 163.2-163.2 425.6-163.2 588.8 0 163.2 163.2 163.2 425.6 0 588.8z" p-id="1097" fill="#aaa"></path><path d="M512 297.6m-51.2 0a51.2 51.2 0 1 0 102.4 0 51.2 51.2 0 1 0-102.4 0Z" p-id="1098" fill="#aaa"></path><path d="M512 406.4c-22.4 0-38.4 19.2-38.4 38.4v320c0 22.4 19.2 38.4 38.4 38.4 22.4 0 38.4-19.2 38.4-38.4V448c0-22.4-16-41.6-38.4-41.6z" p-id="1099" fill="#aaa"></path></svg>