<svg xmlns="http://www.w3.org/2000/svg" viewBox="0 0 145 94.387">
  <defs>
    <style>
      .cls-1 {
        fill: #e4e4e4;
        stroke: #c3c3c3;
        stroke-width: 2px;
      }

      .cls-2 {
        fill: #c5c5c5;
      }

      .cls-3 {
        stroke: none;
      }

      .cls-4 {
        fill: none;
      }
    </style>
  </defs>
  <g id="身份证_背面" data-name="身份证 背面" transform="translate(-369 -1121)">
    <g id="矩形_57" data-name="矩形 57" class="cls-1" transform="translate(369 1121)">
      <rect class="cls-3" width="145" height="94.387" rx="4"/>
      <rect class="cls-4" x="1" y="1" width="143" height="92.387" rx="3"/>
    </g>
    <rect id="矩形_58" data-name="矩形 58" class="cls-2" width="120.377" height="5.472" transform="translate(381.311 1194.868)"/>
    <rect id="矩形_62" data-name="矩形 62" class="cls-2" width="120.377" height="5.472" transform="translate(381.311 1182.868)"/>
    <rect id="矩形_59" data-name="矩形 59" class="cls-2" width="73.603" height="17.783" transform="translate(428 1153.141)"/>
    <rect id="矩形_61" data-name="矩形 61" class="cls-2" width="73.603" height="5.472" transform="translate(428 1141.255)"/>
    <g id="组_51" data-name="组 51" transform="translate(285.826 1067.027)">
      <path id="路径_120" data-name="路径 120" class="cls-2" d="M136.163,106.926,134.682,94.9a1.333,1.333,0,0,0-1.322-1.17h-2.242A18.843,18.843,0,1,0,98.227,90.4a18.583,18.583,0,0,0,1.827,3.332H97.761A1.333,1.333,0,0,0,96.437,94.9l-1.432,12.027a1.35,1.35,0,0,0,1.324,1.511h7.2a1.333,1.333,0,0,0,.741-.226l2.242-1.5h18.148l2.24,1.5a1.333,1.333,0,0,0,.741.226h7.2a1.35,1.35,0,0,0,1.323-1.517Zm-32.014-35.3a16.172,16.172,0,1,1-4.736,11.437A16.172,16.172,0,0,1,104.149,71.628Zm23.9,34.149-2.242-1.5a1.333,1.333,0,0,0-.741-.226H106.105a1.333,1.333,0,0,0-.741.226l-2.242,1.5H97.831L98.946,96.4h3.328a18.824,18.824,0,0,0,26.622,0h3.283l1.153,9.381Z" transform="translate(0 0)"/>
      <path id="路径_121" data-name="路径 121" class="cls-2" d="M254.2,201.543a13.39,13.39,0,1,0-9.468-3.922A13.39,13.39,0,0,0,254.2,201.543Zm-7.583-20.972a10.723,10.723,0,1,1-3.141,7.584A10.723,10.723,0,0,1,246.613,180.57Z" transform="translate(-138.611 -105.09)"/>
      <path id="路径_122" data-name="路径 122" class="cls-2" d="M376.564,303.37l1.7-1.185,1.7,1.185-.6-1.985,1.653-1.253-2.074-.042-.681-1.959-.681,1.959-2.074.042,1.653,1.253Zm3.648,3.581.295,1.26.55-1.171,1.289.109-.943-.885.5-1.192-1.133.624-.979-.846.243,1.27-1.107.669Zm-4.735.089.55,1.171.295-1.259,1.283-.161-1.106-.669.243-1.27-.979.846-1.133-.624.5,1.192-.943.885Zm7.6-3.911.509,1.189.338-1.249,1.288-.117-1.083-.708.287-1.261-1.008.811-1.11-.663.46,1.209-.974.852Zm-10.468-.067.338,1.249.509-1.189,1.292.064-.974-.852.46-1.209-1.11.663-1.008-.811.287,1.261-1.083.708Zm10.619,6.516H373.3a1.333,1.333,0,0,0,0,2.666h9.924a1.333,1.333,0,0,0,0-2.666Z" transform="translate(-262.681 -222.366)"/>
    </g>
  </g>
</svg>
