<svg xmlns="http://www.w3.org/2000/svg" viewBox="0 0 145 94.387">
  <defs>
    <style>
      .cls-1 {
        fill: #e4e4e4;
        stroke: #c3c3c3;
        stroke-width: 2px;
      }

      .cls-2 {
        fill: #c5c5c5;
      }

      .cls-3 {
        stroke: none;
      }

      .cls-4 {
        fill: none;
      }
    </style>
  </defs>
  <g id="身份证_正面" data-name="身份证 正面" transform="translate(-1452 -1282)">
    <g id="矩形_57" data-name="矩形 57" class="cls-1" transform="translate(1452 1282)">
      <rect class="cls-3" width="145" height="94.387" rx="4"/>
      <rect class="cls-4" x="1" y="1" width="143" height="92.387" rx="3"/>
    </g>
    <path id="联合_8" data-name="联合 8" class="cls-2" d="M0,52.033S0,35.486,18.132,35.486c4.534,4.533,8.613,8.386,15.187,0,16.319-1.134,17,16.546,17,16.546Zm12.311-36.3C12.311,7.043,18.13,0,25.307,0S38.3,7.043,38.3,15.731,32.483,31.463,25.307,31.463,12.311,24.42,12.311,15.731Z" transform="translate(1534.075 1295.679)"/>
    <rect id="矩形_58" data-name="矩形 58" class="cls-2" width="120.377" height="5.472" transform="translate(1464.311 1355.868)"/>
    <rect id="矩形_59" data-name="矩形 59" class="cls-2" width="64.292" height="17.783" transform="translate(1464.311 1327.141)"/>
    <rect id="矩形_60" data-name="矩形 60" class="cls-2" width="64.292" height="5.472" transform="translate(1464.311 1316.198)"/>
    <rect id="矩形_61" data-name="矩形 61" class="cls-2" width="64.292" height="5.472" transform="translate(1464.311 1305.255)"/>
  </g>
</svg>
