<svg xmlns="http://www.w3.org/2000/svg" viewBox="0 0 34 34">
  <defs>
    <style>
      .cls-1 {
        fill: #ebebeb;
        opacity: 0;
      }

      .cls-2, .cls-3 {
        fill: #1890ff;
      }

      .cls-3 {
        stroke: #1890ff;
        stroke-width: 0.4px;
      }
    </style>
  </defs>
  <g id="投保记录" transform="translate(-522 -1518)">
    <rect id="矩形_49" data-name="矩形 49" class="cls-1" width="34" height="34" transform="translate(522 1518)"/>
    <g id="组_44" data-name="组 44" transform="translate(-997.197 662.84)">
      <path id="路径_81" data-name="路径 81" class="cls-2" d="M215.853,89.765v5.882a.941.941,0,0,1-.941.941h-6.147V111.91a1.844,1.844,0,0,0,.131.943.722.722,0,0,0,.305.305,1.844,1.844,0,0,0,.943.131l6.16.027a.882.882,0,0,1,0,1.765l-6.16-.027a3.414,3.414,0,0,1-1.776-.34,2.485,2.485,0,0,1-1.029-1.029,3.414,3.414,0,0,1-.34-1.776V95.943a4,4,0,0,1,.084-1.008,2.42,2.42,0,0,1,.327-.765,3.991,3.991,0,0,1,.67-.758l4.626-4.429a4.067,4.067,0,0,1,.748-.613,2.417,2.417,0,0,1,.737-.3,4.068,4.068,0,0,1,.964-.075l10.131.076a3.414,3.414,0,0,1,1.776.34,2.485,2.485,0,0,1,1.029,1.029,3.414,3.414,0,0,1,.34,1.775v4.427a.882.882,0,1,1-1.765,0V91.22a1.844,1.844,0,0,0-.131-.943.722.722,0,0,0-.305-.305,1.844,1.844,0,0,0-.943-.131Zm-1.765.341-.161.152L209.3,94.686l-.141.137h4.928Z" transform="translate(1315.828 770)"/>
      <path id="路径_96" data-name="路径 96" class="cls-3" d="M63.766,13.4c.023-.467.038-.935.072-1.4a1.176,1.176,0,0,1,1.074-1.086c.5-.034,1-.041,1.5-.1a12.355,12.355,0,0,0,5.5-2,1.168,1.168,0,0,1,1.079-.164,1.344,1.344,0,0,1,.292.152,12.613,12.613,0,0,0,4.882,1.932,12.893,12.893,0,0,0,2,.176,1.205,1.205,0,0,1,1.222,1.229,18.316,18.316,0,0,1-.032,2.925,16.458,16.458,0,0,1-3.514,9.067,13.145,13.145,0,0,1-4.721,3.7,1.17,1.17,0,0,1-1.049-.012,13.2,13.2,0,0,1-4.354-3.281A15.541,15.541,0,0,1,64.4,18.21a19.34,19.34,0,0,1-.637-4.811ZM65,12.136c-.012.231-.03.456-.036.685a18.214,18.214,0,0,0,.213,3.37,15.547,15.547,0,0,0,1.684,5.049,12.468,12.468,0,0,0,5.632,5.446.234.234,0,0,0,.216,0,12.233,12.233,0,0,0,5.278-4.829,16.38,16.38,0,0,0,2.24-9.4c0-.108-.019-.215-.027-.325l-.106-.007a14.018,14.018,0,0,1-2.208-.2A13.682,13.682,0,0,1,72.7,9.859a.152.152,0,0,0-.195,0c-.293.186-.589.373-.894.541a13.529,13.529,0,0,1-5.631,1.686c-.32.022-.642.035-.983.052ZM71.434,19.8c.043-.052.07-.091.1-.124q2.065-2.139,4.13-4.277a.606.606,0,0,1,.542-.221.568.568,0,0,1,.471.388.6.6,0,0,1-.107.613,1.474,1.474,0,0,1-.1.109Q74.193,18.641,71.916,21a.594.594,0,0,1-.982,0q-1.127-1.161-2.251-2.327a.627.627,0,0,1-.048-.862.574.574,0,0,1,.858-.018c.36.367.715.737,1.071,1.106.285.294.568.589.87.9Z" transform="translate(1467.634 858.369)"/>
    </g>
  </g>
</svg>
