<?xml version="1.0" encoding="utf-8"?>
<!-- Generator: Adobe Illustrator 22.1.0, SVG Export Plug-In . SVG Version: 6.00 Build 0)  -->
<svg version="1.1" id="logosvg" xmlns="http://www.w3.org/2000/svg" xmlns:xlink="http://www.w3.org/1999/xlink" x="0px" y="0px"
	 viewBox="0 0 1306.4 501" style="enable-background:new 0 0 1306.4 501;" xml:space="preserve">
<g>
	<g>
		<path d="M1154.8,274c25.1,29.2,53.2,52.1,84.5,71.2c8.5,5.2,17.1,10.4,25.3,16c3.2,2.2,6,5.2,8.4,8.2c4.2,5.2,3.8,10.8,0,16.2
			c-3.5,5-10.2,7.5-16.1,5c-7.6-3.2-15.1-7-22.2-11.3c-29.5-18-56.1-39.6-80.6-63.9c-1.5-1.5-3-2.8-4.6-4.2
			c-0.2-0.2-0.7-0.2-1.9-0.4c0,2.3,0,4.5,0,6.8c0,27.1,0.1,54.2-0.1,81.3c0,3.4-0.5,7.2-2,10.2c-2.6,5.4-9.8,8-15.6,6.6
			c-6.5-1.6-10.5-6.5-10.5-13.6c-0.1-27.3,0-54.6-0.1-81.9c0-2.2,0-4.5,0-8.3c-2.6,2.3-4.2,3.6-5.8,5.1
			c-24.2,23.4-51,43.6-79.4,61.5c-4.4,2.8-9.1,5.1-13.9,6.9c-6.5,2.5-13.2,0-16.9-5.7c-3.4-5.1-2.7-12.4,2.7-17
			c5.3-4.6,11.2-8.7,17.4-12.1c34.1-19,62-45.5,88.5-73.6c0.5-0.6,0.9-1.3,2.2-3c-3.1,0-5.2,0-7.4,0c-29.8,0-59.6,0-89.4,0
			c-9.1,0-15-6.2-14.1-14.4c0.8-7.3,6.3-11.7,15.1-11.7c15.4-0.1,30.8,0,46.3,0c17.9,0,35.8,0,54.2,0c0-11.6,0-22.7,0-34.6
			c-2-0.1-4.3-0.3-6.5-0.3c-16.3,0-32.5,0-48.8-0.1c-4.4,0-8.8,0-13.1-0.8c-16.2-3.2-24.6-12.9-25.6-32.1c-1-18.1-0.9-36.3,0-54.4
			c0.4-7.2,3.2-14.7,6.5-21.3c4.6-9.3,14.1-11.1,23.5-11.7c8.7-0.5,17.5-0.2,26.2-0.2c39.4,0,78.8-0.3,118.1,0.2
			c9.4,0.1,18.9,2.5,28.1,4.6c11,2.5,18.1,10.1,18.5,21c0.9,22.4,2,45-0.3,67.2c-2.1,20.6-11.1,26.6-32,27.1
			c-19.4,0.5-38.8,0.3-58.1,0.4c-2.3,0-4.5,0-7.3,0c0,11.6,0,22.8,0,34.6c2.3,0.1,4.7,0.3,7.1,0.3c34.2,0,68.3,0,102.5,0
			c9.7,0,15,5.1,14.7,13.8c-0.4,7.9-5.2,12.3-14.1,12.3c-31.9,0-63.8,0-95.6,0C1160.5,274,1158.3,274,1154.8,274z M1133.4,118.6
			C1133.4,118.6,1133.4,118.6,1133.4,118.6c-17.1-0.1-34.2-0.2-51.2,0c-6.6,0.1-13.3,0.3-19.9,1.2c-7.1,1-10.9,5-11.2,12.1
			c-0.4,13.1-0.6,26.3,0.1,39.3c0.5,9.4,4.2,12.8,13.5,14.3c4.5,0.8,9.1,0.9,13.7,0.9c36.9,0.1,73.7,0.1,110.6,0
			c6,0,12.1-0.5,18-1.7c8.2-1.7,11.3-5.6,11.7-13.9c0.4-9.1,0.5-18.3,0.4-27.5c-0.4-20.1-4.7-24.5-25-24.7
			C1173.8,118.4,1153.6,118.6,1133.4,118.6z"/>
		<path d="M964.3,224.9c-4,5.9-7.9,11.9-12.2,17.6c-5.5,7.2-13.8,8.9-20.3,4.3c-5.1-3.6-7.7-8.6-5.1-14.6c2.8-6.5,6.1-12.8,9.9-18.7
			c17.3-26.4,32.2-54,41-84.5c2.7-9.4,4.5-19,6.8-28.5c0.6-2.4,1.2-4.9,2.2-7.1c3.2-7.6,7.6-10,15.2-8.7c5.6,1,9.6,4.9,9,12.4
			c-1.1,14.2-3.6,28.4-5.6,42.5c-0.3,2.2-1,4.5-1.9,6.6c-8.8,20.8-9.9,42.5-9.7,64.8c0.6,62.5,0.3,125,0.1,187.6
			c0,4.3-1.1,9.2-3.3,12.9c-3.2,5.5-9.1,6.4-14.9,4.8c-5.7-1.6-9-5.8-9.7-11.8c-0.2-2.3-0.1-4.6-0.1-6.9c0-55.2,0-110.5,0-165.7
			c0-2.2,0-4.4,0-6.6C965.1,225.2,964.7,225,964.3,224.9z"/>
	</g>
	<g>
		<path d="M160.8,430.8c66.9,8.4,124.3-10.3,170.2-60c37.4-40.5,53.5-89.3,49.4-144.1C371.9,112.7,264.3,31.2,154.4,55
			c1.7-1.2,2.5-2,3.4-2.4c41.6-18.6,84.9-24,129.4-14.6c18.2,3.9,34.3,14.1,49,25.5c67,51.8,96.4,120.4,82.3,203.7
			c-14,82.3-63.6,137.2-143.3,163.2c-35.9,11.7-72.6,11.3-109.1,2C164.2,432,162.5,431.4,160.8,430.8z"/>
		<path d="M114.9,421.6c55.7,28.5,113.2,33.9,172.3,13.2c46.4-16.2,82.5-46.1,109.1-87.4c56.5-87.7,42.1-216.3-51.6-288.2
			c47.2,21.3,103.3,81.7,113.5,163.2c12.3,98.9-41.2,184.7-118.2,223C261.9,484.3,172.8,469.1,114.9,421.6z"/>
		<path d="M33.1,214.8c3.8-13.3,6.8-26.2,11.2-38.6c13.3-37.3,35.6-68.5,65.9-94C122.3,72,137,68,151.7,64.5
			c35.2-8.3,69.8-6.1,103.8,6.5c1,0.4,1.9,0.7,2.9,1.2c0.3,0.2,0.6,0.5,2.1,1.7c-4.7-0.5-8.2-0.8-11.7-1.2
			C170.9,65.8,97.4,121.5,83,198.8c-1.2,6.3-3,9.8-10,9.1c-2.6-0.3-5.4,0.5-8.1,0.7c-5.2,0.5-10.4,0.6-15.5,1.6
			C44.4,211.2,39.5,213,33.1,214.8z"/>
		<path d="M298.1,238.6c-17.7-3.5-35.4-6.9-53.1-10.4c-24.2-4.8-46.2-1.5-65.4,15.5c-4.8,4.3-11.2,7.3-17.4,9.4
			c-9.7,3.3-20.4-1.2-25.7-9.4c-4.2-6.6-2.9-16.4,3.9-24.2c9.8-11.3,23-17,37.3-17.9c12.3-0.8,25.1-0.3,37.1,2.4
			C244.4,210.5,271.2,224.5,298.1,238.6z"/>
		<path d="M372.9,231.4c-0.9,5.9-4.7,7.4-8.8,8.4c-19.4,5.2-38.4,4-56.7-4.5c-20.4-9.5-40.6-19.2-61-28.6
			c-17.2-7.9-35.2-12.3-54.1-14.1c-17.6-1.7-33.5,3.1-48.1,12.3c-16.1,10.2-33.7,16.1-52.3,19.3c-6.3,1.1-12.9,0.8-19.2,2
			c-6.6,1.2-13,3.4-19.5,5.2c2.6,10.7,2,12.6-5.6,17.5c0-3.9,0-7.3,0-10.8c-7.9,9.3-10.7,19.9-10.3,31.6c-4.7-8.8-7.8-17.9-6.7-27.8
			c1.1-9.9,9.4-18.2,21.7-20.4c14.5-2.6,29.4-3.5,43.8-6.5c10.8-2.3,21.3-6.5,31.8-10.4c4.6-1.7,8.9-4.5,13-7.4
			c23.9-16.9,50.2-18.5,77-10.2c19.6,6.1,38.4,14.5,57.5,22.3c9,3.7,17.6,8.5,26.5,12.5C324.4,231.9,347.1,241.4,372.9,231.4z"/>
		<path d="M227.2,277.5c-2.3,0.5-4.6,1.2-6.9,1.3c-24.3,1.3-48.6,2.7-73,3.6c-20.2,0.8-40.2,2.6-59.5,9.5c-6.4,2.3-14,2.6-20.8,1.6
			c-10.6-1.5-17.2-8.9-19.5-19.4c-2.2-10.1,0.9-18.6,9.1-24.9c7.4-5.7,15.9-8.7,25.2-5.8c13.1,4,26.5,7.6,38.9,13.2
			c29.9,13.4,61.2,18.2,93.6,18.4c4.3,0,8.6,0.5,12.8,0.8C227.1,276.4,227.2,277,227.2,277.5z M72.3,249.9c-10.4,0-19,8.7-18.9,19.1
			c0,10.5,8.6,19.1,19,19.1c10.4,0,19-8.7,19-19.2C91.4,258.4,82.8,249.8,72.3,249.9z"/>
		<path d="M343.4,275c-6.5,0.6-13.8,0.2-20.5,2c-9.2,2.5-17.8,6.8-26.9,9.9c-8.2,2.9-16.5,5.9-25,7.6c-14.1,2.7-25.8-4.9-29.4-18
			c-3.6-13.2,2.4-25.2,15.7-30.8c9.4-3.9,19-4.8,28.6-0.9c5.6,2.3,11.1,4.8,16.4,7.6C316.2,259.8,329.9,267.5,343.4,275z M247.3,269
			c-0.2,10.4,8.3,19.4,18.6,19.6c10.2,0.2,19.1-8.5,19.4-18.9c0.2-10.3-8.3-19.4-18.7-19.6C256.4,249.9,247.6,258.5,247.3,269z"/>
	</g>
	<g>
		<path d="M726.6,281.3c-5.8,0-10.6,0.3-15.3-0.1c-10-0.7-15.5-5-17.7-14.6c-1.5-6.6-2.6-13.5-2.7-20.3c-0.4-17.3-0.1-34.6-0.1-51.9
			c0-1.5,0-2.9,0-4.4c0.5-17.1,10.4-28.3,27.4-28.5c41.3-0.5,82.5-0.5,123.8,0c17.1,0.2,27.3,10.8,27.8,28.2c0.6,21,0.6,42.1,0,63.1
			c-0.6,19.5-10.7,28.5-30.3,28.6c-6.9,0-13.7,0-21.1,0c-0.3,1.8-0.7,3.3-0.7,4.9c0,24.4-0.2,48.8,0,73.2c0.2,18.8,3,21.5,21.9,21.8
			c3.5,0.1,7.1,0.1,10.6,0c13.5-0.3,20.9-7.3,21.9-21.1c0.5-6.6,0.3-13.3,1-20c0.8-8,5.3-12.4,12-12.9c6.4-0.4,12.4,4,12.8,11.8
			c0.6,10.9-0.4,21.9-1.4,32.9c-0.5,5.7-2.6,11.3-4,17c-2.4,9.9-9,15.4-18.6,17.1c-8,1.4-16.1,2.5-24.1,2.8
			c-9.3,0.3-18.8,0.4-28.1-0.8c-20.2-2.6-29.3-12.8-29.7-33.3c-0.5-25-0.2-50-0.2-75c0-5.8,0-11.6,0-17.9c-12.7,0-24.8,0-37.4,0
			c-1.2,12.3-2.5,24.5-3.4,36.7c-1.7,22.4-10.9,41.5-26.7,57c-9.6,9.4-20.4,17.7-31.5,25.3c-5.6,3.8-12.9,5.6-19.7,7.2
			c-7.3,1.7-13-1.9-15.2-7.8c-2-5.5,0.4-12.6,5.9-16.4c3.3-2.2,7-3.7,10.2-6c11.5-8.5,23.4-16.6,34.2-26
			c10.1-8.9,14.1-21.5,15.7-34.6C725.3,305.8,725.7,294.1,726.6,281.3z M779,255.1C779,255.2,779,255.2,779,255.1
			c15.8,0.1,31.6,0.1,47.5,0.1c1.2,0,2.5-0.1,3.7-0.1c11.4-0.5,15.2-4.2,15.4-15.7c0.2-11.4,0.2-22.9,0-34.4
			c-0.1-11.7-3.6-15.8-15.2-15.9c-34.1-0.3-68.3-0.3-102.4,0c-8.9,0.1-12,3.2-12.3,12.3c-0.4,13.9-0.4,27.9-0.2,41.8
			c0.1,9.1,2.9,11.8,12.2,11.9C744.9,255.3,761.9,255.1,779,255.1z"/>
		<path d="M610.8,250.6c0-49.8,0-99.6,0-149.3c0-9.2,4-15,11.1-16.5c8.4-1.7,16,3.5,17.2,12.1c0.3,2,0.2,4.2,0.2,6.2
			c0,98.1,0,196.2,0,294.3c0,0.8,0,1.7,0,2.5c-0.1,10.2-5.7,16.8-14.3,16.9c-8.6,0.1-14.1-6.4-14.1-16.9
			C610.8,350.2,610.8,300.4,610.8,250.6z"/>
		<path d="M598.4,182.4c-3.8,27.1-7.5,54.3-11.5,81.4c-0.4,3-1.6,6-2.8,8.9c-3.2,7.4-8.1,9.8-15.4,8.2c-6-1.3-9.3-6-8.6-13.9
			c1.1-11.4,2.9-22.7,4.3-34c2.1-17.5,4-35.1,6.3-52.6c0.6-4.5,1.6-9,3.3-13.2c2.2-5.4,6.9-7.7,12.6-7.3c5.8,0.4,8.3,4.4,9.4,9.4
			c0.9,4.2,1.1,8.6,1.5,12.9C597.8,182.3,598.1,182.4,598.4,182.4z"/>
		<path d="M855.1,100.1c-0.5,2-0.9,4.1-1.6,6c-7.1,17.8-17.2,33.7-31.6,46.5c-3,2.7-6.7,5.2-10.5,6.5c-8.5,2.9-15.8-4-13.5-12.7
			c1-3.7,3.1-7.2,5.4-10.4c9.3-13.3,18.7-26.5,28.3-39.6c1.9-2.6,4.2-5.6,7-6.7c3.1-1.2,7.8-1.9,10.3-0.3c3.2,2,5,6.4,7.4,9.8
			C855.8,99.5,855.4,99.8,855.1,100.1z"/>
		<path d="M761,140.5c0,12.7-8.1,17.9-16.8,13.6c-3.4-1.7-6.5-4.5-9.1-7.3c-10.3-11.1-20.3-22.6-30.5-33.8
			c-6.4-7.1-7.6-12.4-4.2-19.1c2-3.9,5-5.7,9.1-4.2c3.7,1.3,7.8,2.4,10.6,5c11.5,10.4,23,21,33.6,32.3
			C757.8,131.2,759.6,137.6,761,140.5z"/>
		<path d="M677.4,217.8c-0.5,4.1-0.7,8.3-1.5,12.3c-0.9,4.7-3.9,8.8-8.7,8.2c-3.8-0.4-9-2.8-10.6-5.8c-3-5.7-4.5-12.4-5.5-18.9
			c-1.8-11.5-2.7-23.1-4-34.7c-0.2-1.4-0.2-2.9-0.2-4.4c-0.1-8.3,3.3-13.4,9.7-14.6c6-1.1,11.9,2.8,13.6,11
			c3.1,15.4,5.3,31.1,7.9,46.6C677.9,217.6,677.6,217.7,677.4,217.8z"/>	
	</g>
</g>
</svg>
