<?xml version="1.0" standalone="no"?><!DOCTYPE svg PUBLIC "-//W3C//DTD SVG 1.1//EN" "http://www.w3.org/Graphics/SVG/1.1/DTD/svg11.dtd"><svg t="1545127613524" class="icon" style="" viewBox="0 0 1024 1024" version="1.1" xmlns="http://www.w3.org/2000/svg" p-id="6758" xmlns:xlink="http://www.w3.org/1999/xlink" width="40" height="40"><defs><style type="text/css"></style></defs><path d="M592.911 258.453c0 103.686-86.956 187.644-194.127 187.644-107.278 0-194.228-83.964-194.228-187.644s86.956-187.642 194.228-187.642c107.171 0 194.127 83.961 194.127 187.642z" p-id="6759" fill="#333333"></path><path d="M978.468 834.651c0 39.172-29.183 70.874-77.556 70.021-24.265-0.161-61.542 3.152-83.371-0.855-44.674-8.171-17.245-71.050-28.045-123.215-26.486-127.137-144.469-210.079-174.454-227.406 0 0 39.577-40.537 116.503-26.254-8.975-1.682 18.007 3.998 28.148 6.541 125.563 35.359 218.767 179.993 218.767 301.195z" p-id="6760" fill="#333333"></path><path d="M733.6 912.4c-0.253 37.826-14.234 75.381-69.292 75.381-123.968-0.161-471.822 0.512-531.791 0-67.262-0.595-69.454-39.172-69.454-75.381 0-174.558 102.252-330.939 239.441-375.891 0 0 34.028-12.498 95.843-12.663 62.693-0.085 92.774 12.663 92.774 12.663 137.329 44.95 243.988 202.956 242.5 375.891z" p-id="6761" fill="#333333"></path><path d="M585.094 464.022c-75.712-50.566 23.823-11.222 51.971-155.441 7.206-37.046 7.66-85.068-1.929-119.332-7.395-26.691-13.094-51.154 33.326-41.217 92.249 19.799 154.051 102.57 136.732 191.215-10.898 55.573-72.641 134.535-157.123 138.020-16.179 0.677-49.329-4.172-62.953-13.264z" p-id="6762" fill="#333333"></path></svg>