<?xml version="1.0" encoding="utf-8"?>
<!-- Generator: Adobe Illustrator 23.0.0, SVG Export Plug-In . SVG Version: 6.00 Build 0)  -->
<svg version="1.0" id="图层_1" xmlns="http://www.w3.org/2000/svg" xmlns:xlink="http://www.w3.org/1999/xlink" x="0px" y="0px"
	 viewBox="0 0 22 22" style="enable-background:new 0 0 22 22;" xml:space="preserve">
<style type="text/css">
	.st0{fill:#CCCCCC;}
	.st1{fill:#FFFFFF;}
	.st2{fill:#DE9E3E;}
</style>
<g>
	<circle class="st2" cx="11" cy="11" r="11"/>
	<g>
		<path class="st1" d="M16.36,7.39c-0.14-0.15-0.29-0.32-0.48-0.37c-0.69-0.14-8.99-0.16-9.74,0C5.53,7.16,5.21,7.83,5.21,8.43v5.07
			c0,0.87,0.77,1.58,1.7,1.58h8.18c0.95,0,1.7-0.71,1.7-1.58V8.43C16.79,8.05,16.63,7.68,16.36,7.39L16.36,7.39z M12.97,10.65
			l2.95-2.76c0.12,0.15,0.17,0.35,0.17,0.54v5.15L12.97,10.65z M15.38,7.51l-3.36,3.13c-0.62,0.58-1.64,0.58-2.28,0L6.49,7.58
			L15.38,7.51z M5.95,13.76c-0.02-0.08-0.04-0.17-0.04-0.27V8.43c0-0.13,0.04-0.29,0.1-0.41l3.05,2.84L5.95,13.76z M6.91,14.45
			c-0.21,0-0.41-0.06-0.58-0.17l3.2-2.99c0.39,0.27,0.85,0.41,1.33,0.41c0.6,0,1.16-0.21,1.6-0.6l3.32,3.09
			c-0.19,0.17-0.42,0.27-0.71,0.27H6.91z M6.91,14.45"/>
	</g>
</g>
</svg>
