<?xml version="1.0" encoding="utf-8"?>
<!-- Generator: Adobe Illustrator 23.0.0, SVG Export Plug-In . SVG Version: 6.00 Build 0)  -->
<svg version="1.0" id="图层_1" xmlns="http://www.w3.org/2000/svg" xmlns:xlink="http://www.w3.org/1999/xlink" x="0px" y="0px"
	 viewBox="0 0 22 22" style="enable-background:new 0 0 22 22;" xml:space="preserve">
<style type="text/css">
	.st0{fill:#CCCCCC;}
	.st1{fill:#FFFFFF;}
	.st2{fill:#DE9E3E;}
</style>
<g>
	<circle class="st0" cx="11" cy="11" r="11"/>
	<g>
		<path class="st1" d="M16.36,8.3c-0.14-0.15-0.31-0.27-0.48-0.37l-0.02,0.02l-3.34-2.91c-0.42-0.39-1-0.62-1.62-0.62
			c-0.66,0-1.22,0.21-1.66,0.62L6.14,7.94C5.58,8.21,5.21,8.75,5.21,9.34v5.07c0,0.87,0.77,1.58,1.7,1.58h8.18
			c0.95,0,1.7-0.71,1.7-1.58V9.34C16.79,8.96,16.63,8.59,16.36,8.3L16.36,8.3z M12.97,11.56l2.95-2.76
			c0.12,0.15,0.17,0.35,0.17,0.54v5.15L12.97,11.56z M9.73,5.51c0.31-0.29,0.73-0.44,1.16-0.44s0.85,0.15,1.16,0.44l3.34,2.91
			l-3.36,3.13c-0.62,0.58-1.64,0.58-2.28,0L6.49,8.5L9.73,5.51z M5.95,14.67c-0.02-0.08-0.04-0.17-0.04-0.27V9.34
			c0-0.13,0.04-0.29,0.1-0.41l3.05,2.84L5.95,14.67z M6.91,15.36c-0.21,0-0.41-0.06-0.58-0.17l3.2-2.99
			c0.39,0.27,0.85,0.41,1.33,0.41c0.6,0,1.16-0.21,1.6-0.6l3.32,3.09c-0.19,0.17-0.42,0.27-0.71,0.27H6.91z M6.91,15.36"/>
	</g>
</g>
</svg>
