<?xml version="1.0" encoding="utf-8"?>
<!-- Generator: Adobe Illustrator 23.0.0, SVG Export Plug-In . SVG Version: 6.00 Build 0)  -->
<svg version="1.1" id="图层_1" xmlns="http://www.w3.org/2000/svg" xmlns:xlink="http://www.w3.org/1999/xlink" x="0px" y="0px"
	 viewBox="0 0 20 20" style="enable-background:new 0 0 20 20;" xml:space="preserve">
<style type="text/css">
	.st0{fill:#6E7074;}
</style>
<path class="st0" d="M19.2,15.4h-0.8V9.2c0-4.1-3.1-7.5-7.1-7.9c0,0,0,0,0,0V0.8c0-0.5-0.4-0.8-0.8-0.8H9.6C9.1,0,8.8,0.4,8.8,0.8
	v0.4c0,0,0,0,0,0c-4,0.4-7.1,3.8-7.1,7.9v6.3H0.8c-0.5,0-0.8,0.4-0.8,0.8c0,0.5,0.4,0.8,0.8,0.8h0.8h4.6C6.5,18.7,8.1,20,10,20
	s3.5-1.3,3.7-2.9h4.6h0.8c0.5,0,0.8-0.4,0.8-0.8C20,15.8,19.6,15.4,19.2,15.4z M10,18.3c-1,0-1.8-0.5-2-1.3h4
	C11.8,17.8,11,18.3,10,18.3z M3.3,15.4V9.2c0-3.5,2.8-6.3,6.3-6.3h0.8c3.5,0,6.3,2.8,6.3,6.3v6.3H3.3z"/>
</svg>
