<?xml version="1.0" encoding="utf-8"?>
<!-- Generator: Adobe Illustrator 22.1.0, SVG Export Plug-In . SVG Version: 6.00 Build 0)  -->
<svg version="1.1" id="图层_1" xmlns="http://www.w3.org/2000/svg" xmlns:xlink="http://www.w3.org/1999/xlink" x="0px" y="0px"
	 viewBox="0 0 15 15" style="enable-background:new 0 0 15 15;" xml:space="preserve">
<style type="text/css">
	.st0{fill:#FFFFFF;}
</style>
<path class="st0" d="M2.3,1c-0.6,0-1,0.5-1,1V14c0,0.6,0.5,1,1,1h10.3c0.6,0,1-0.5,1-1V2.1c0-0.6-0.5-1-1-1h-1.6l0.5,0.5V0.8
	c0-0.4-0.3-0.8-0.8-0.8H4.1C3.7,0,3.4,0.3,3.4,0.8v0.8L3.9,1H2.3z M4.4,2.1V1.6V0.8C4.4,0.9,4.3,1,4.1,1h6.7c-0.1,0-0.3-0.1-0.3-0.3
	v0.8v0.5h0.5h1.6c0,0,0,11.9,0,11.9c0,0-10.3,0-10.3,0c0,0,0-11.9,0-11.9c0,0,1.6,0,1.6,0H4.4z M10.6,2.3c0-0.1,0.1-0.3,0.3-0.3H4.1
	c0.1,0,0.3,0.1,0.3,0.3V1.6C4.4,1.3,4.2,1,3.9,1C3.6,1,3.4,1.3,3.4,1.6v0.8c0,0.4,0.3,0.8,0.8,0.8h6.7c0.4,0,0.8-0.3,0.8-0.8V1.6
	c0-0.3-0.2-0.5-0.5-0.5s-0.5,0.2-0.5,0.5V2.3z M10.6,6.5c0.3,0,0.5-0.2,0.5-0.5c0-0.3-0.2-0.5-0.5-0.5H4.4c-0.3,0-0.5,0.2-0.5,0.5
	c0,0.3,0.2,0.5,0.5,0.5H10.6z M4.4,8C4.1,8,3.9,8.2,3.9,8.5c0,0.3,0.2,0.5,0.5,0.5h6.2c0.3,0,0.5-0.2,0.5-0.5c0-0.3-0.2-0.5-0.5-0.5
	H4.4z M4.4,10.6c-0.3,0-0.5,0.2-0.5,0.5c0,0.3,0.2,0.5,0.5,0.5h4.1c0.3,0,0.5-0.2,0.5-0.5c0-0.3-0.2-0.5-0.5-0.5H4.4z"/>
</svg>
