<?xml version="1.0" standalone="no"?><!DOCTYPE svg PUBLIC "-//W3C//DTD SVG 1.1//EN" "http://www.w3.org/Graphics/SVG/1.1/DTD/svg11.dtd"><svg class="icon" width="64px" height="64.00px" viewBox="0 0 1024 1024" version="1.1" xmlns="http://www.w3.org/2000/svg"><path d="M365.44 557.44L448 474.24l82.56 83.2a64 64 0 0 0 90.88 0l128-128a64 64 0 1 0-90.88-90.88L576 421.76l-82.56-83.2a64 64 0 0 0-90.88 0l-128 128a64 64 0 0 0 90.88 90.88z"  /><path d="M960 64H576a64 64 0 0 0-128 0H64a64 64 0 0 0 0 128v576a64 64 0 0 0 64 64h320v64H320a64 64 0 0 0 0 128h384a64 64 0 0 0 0-128H576v-64h320a64 64 0 0 0 64-64V192a64 64 0 0 0 0-128z m-128 640H192V192h640z"  /></svg>
