<?xml version="1.0" standalone="no"?><!DOCTYPE svg PUBLIC "-//W3C//DTD SVG 1.1//EN" "http://www.w3.org/Graphics/SVG/1.1/DTD/svg11.dtd"><svg class="icon" width="64px" height="64.00px" viewBox="0 0 1024 1024" version="1.1" xmlns="http://www.w3.org/2000/svg"><path d="M832 192h-73.6A256 256 0 0 0 512 0h-3.84a256 256 0 0 0-243.2 192H192a192 192 0 0 0-192 192v448a192 192 0 0 0 192 192h640a192 192 0 0 0 192-192V384a192 192 0 0 0-192-192zM512 128a128 128 0 0 1 109.44 64H401.28A128 128 0 0 1 512 128z m384 704a64 64 0 0 1-64 64H192a64 64 0 0 1-64-64V619.52A624.64 624.64 0 0 0 512 768a624.64 624.64 0 0 0 384-148.48z m0-410.88a415.36 415.36 0 0 1-320 214.4V512a64 64 0 0 0-128 0v123.52a415.36 415.36 0 0 1-320-214.4V384a64 64 0 0 1 64-64h640a64 64 0 0 1 64 64z"  /></svg>
