<svg xmlns="http://www.w3.org/2000/svg" viewBox="0 0 25 25">
  <defs>
    <style>
      .cls-1 {
        fill: #f9243d;
      }

      .cls-2, .cls-4 {
        fill: #fff;
      }

      .cls-3, .cls-4 {
        stroke: none;
      }
    </style>
  </defs>
  <g id="组_79" data-name="组 79" transform="translate(-121 -3469)">
    <circle id="椭圆_13" data-name="椭圆 13" class="cls-1" cx="12.5" cy="12.5" r="12.5" transform="translate(121 3469)"/>
    <g id="路径_123" data-name="路径 123" class="cls-2" transform="translate(127.815 3475.845)">
      <path class="cls-3" d="M1.486,11.89A1.488,1.488,0,0,1,0,10.4V8.918a.425.425,0,0,1,.849,0v1.628a.5.5,0,0,0,.5.5h8.776a.5.5,0,0,0,.5-.5v-9.2a.5.5,0,0,0-.5-.5H1.345a.5.5,0,0,0-.5.5V2.973a.425.425,0,0,1-.849,0V1.486A1.488,1.488,0,0,1,1.486,0H9.979a1.488,1.488,0,0,1,1.487,1.486V10.4A1.488,1.488,0,0,1,9.979,11.89Zm4.5-3.455a.424.424,0,0,1,0-.6L7.447,6.37H.424a.425.425,0,0,1,0-.849H7.447L5.982,4.055a.424.424,0,1,1,.6-.6l2.1,2.1.016.017a.425.425,0,0,1,0,.741l-.017.018-2.1,2.1a.424.424,0,0,1-.6,0Z"/>
      <path class="cls-4" d="M 9.979311943054199 11.89036273956299 L 1.486132144927979 11.89036273956299 C 0.6665921211242676 11.89036273956299 2.10433950087463e-06 11.2237720489502 2.10433950087463e-06 10.40423202514648 L 2.10433950087463e-06 8.917662620544434 C 2.10433950087463e-06 8.683132171630859 0.1899421066045761 8.493182182312012 0.4244821071624756 8.493182182312012 C 0.6590120792388916 8.493182182312012 0.8494120836257935 8.683132171630859 0.8494120836257935 8.917662620544434 L 0.8494120836257935 10.54558277130127 C 0.8494120836257935 10.81891250610352 1.07190215587616 11.04096221923828 1.344782114028931 11.04096221923828 L 10.12110233306885 11.04096221923828 C 10.39442253112793 11.04096221923828 10.61648178100586 10.81891250610352 10.61648178100586 10.54558277130127 L 10.61648178100586 1.34478235244751 C 10.61648178100586 1.071452379226685 10.39442253112793 0.8494123220443726 10.12110233306885 0.8494123220443726 L 1.344782114028931 0.8494123220443726 C 1.07190215587616 0.8494123220443726 0.8494120836257935 1.071452379226685 0.8494120836257935 1.34478235244751 L 0.8494120836257935 2.972702264785767 C 0.8494120836257935 3.207242250442505 0.6590120792388916 3.39718222618103 0.4244821071624756 3.39718222618103 C 0.1899421066045761 3.39718222618103 2.10433950087463e-06 3.207242250442505 2.10433950087463e-06 2.972702264785767 L 2.10433950087463e-06 1.486132264137268 C 2.10433950087463e-06 0.6665922999382019 0.6665921211242676 2.323455873920466e-06 1.486132144927979 2.323455873920466e-06 L 9.979311943054199 2.323455873920466e-06 C 10.79929256439209 2.323455873920466e-06 11.46588230133057 0.6665922999382019 11.46588230133057 1.486132264137268 L 11.46588230133057 10.40423202514648 C 11.46588230133057 11.2237720489502 10.79929256439209 11.89036273956299 9.979311943054199 11.89036273956299 Z M 6.281601905822754 8.559612274169922 C 6.173032283782959 8.559612274169922 6.064452171325684 8.518152236938477 5.981522083282471 8.435212135314941 C 5.815651893615723 8.269351959228516 5.815651893615723 8.000922203063965 5.981522083282471 7.835062503814697 L 7.446691989898682 6.369882106781006 L 0.4244821071624756 6.369882106781006 C 0.1899421066045761 6.369882106781006 2.10433950087463e-06 6.179492473602295 2.10433950087463e-06 5.944962501525879 C 2.10433950087463e-06 5.710422515869141 0.1899421066045761 5.520482540130615 0.4244821071624756 5.520482540130615 L 7.447041988372803 5.520482540130615 L 5.981522083282471 4.055302143096924 C 5.815651893615723 3.889442205429077 5.815651893615723 3.621012210845947 5.981522083282471 3.455152273178101 C 6.064456939697266 3.372217416763306 6.17302942276001 3.330749750137329 6.281601905822754 3.330749750137329 C 6.390174388885498 3.330749750137329 6.498746871948242 3.372217416763306 6.581682205200195 3.455152273178101 L 8.684021949768066 5.557042121887207 C 8.689672470092773 5.562692165374756 8.69508171081543 5.568482398986816 8.700351715087891 5.574372291564941 C 8.830032348632813 5.646982192993164 8.917661666870117 5.785682201385498 8.917661666870117 5.944962501525879 C 8.917661666870117 6.104152202606201 8.830132484436035 6.242982387542725 8.700551986694336 6.315772533416748 C 8.695232391357422 6.321732521057129 8.689742088317871 6.327602386474609 8.684021949768066 6.333322525024414 L 6.581682205200195 8.435212135314941 C 6.49874210357666 8.518152236938477 6.390172004699707 8.559612274169922 6.281601905822754 8.559612274169922 Z"/>
    </g>
  </g>
</svg>
