<?xml version="1.0" encoding="utf-8"?>
<!-- Generator: Adobe Illustrator 22.1.0, SVG Export Plug-In . SVG Version: 6.00 Build 0)  -->
<svg version="1.1" id="图层_1" xmlns="http://www.w3.org/2000/svg" xmlns:xlink="http://www.w3.org/1999/xlink" x="0px" y="0px"
	 viewBox="0 0 14 14" style="enable-background:new 0 0 14 14;" xml:space="preserve">
<style type="text/css">
	.st0{fill:#FFFFFF;}
</style>
<g>
	<path class="st0" d="M12,9.8c-0.3,0-0.6,0.3-0.6,0.6V12L7.8,8.4C7.6,8.1,7.3,8.1,7,8.4C6.8,8.6,6.8,8.9,7,9.2l3.6,3.6H9.1
		c-0.3,0-0.6,0.3-0.6,0.6c0,0.3,0.3,0.6,0.6,0.6H12c0.2,0,0.4-0.1,0.5-0.3c0-0.1,0.1-0.2,0.1-0.3v-2.9C12.6,10.1,12.4,9.8,12,9.8z"
		/>
	<path class="st0" d="M12.5,0.8c-0.1-0.2-0.3-0.4-0.6-0.6C11.6,0,11.3,0,10.9,0H5.6C5.4,0,5.3,0,5.1,0C5,0.1,4.8,0.1,4.7,0.2
		C4.5,0.3,4.4,0.4,4.3,0.5L1.9,2.8C1.8,2.9,1.7,3,1.6,3.2C1.5,3.3,1.4,3.5,1.4,3.6c0,0.2-0.1,0.4,0,0.5l0,8.1c0,0.3,0,0.7,0.2,1
		c0.1,0.2,0.3,0.4,0.6,0.6c0.3,0.1,0.6,0.2,1,0.2l3.5,0c0,0,0,0,0,0s0,0,0,0c0.3,0,0.5-0.3,0.5-0.6c0-0.3-0.3-0.6-0.6-0.5l-3.5,0
		c-0.1,0-0.3,0-0.4-0.1c0,0-0.1-0.1-0.1-0.1c-0.1-0.1-0.1-0.3-0.1-0.4V4.6h3c0.3,0,0.6-0.3,0.6-0.6V1.1l4.9,0c0.1,0,0.3,0,0.4,0.1
		c0,0,0.1,0.1,0.1,0.1c0.1,0.1,0.1,0.3,0.1,0.4v6.1c0,0,0,0,0,0.1c0,0.2,0.1,0.3,0.2,0.4c0.1,0.1,0.2,0.1,0.4,0.1c0,0,0,0,0,0
		c0.2,0,0.3-0.1,0.4-0.2c0.1-0.1,0.2-0.3,0.1-0.4V1.7C12.7,1.4,12.6,1.1,12.5,0.8z M5,1.5v2H2.9L5,1.5z"/>
</g>
</svg>
